<mxfile host="app.diagrams.net" modified="2023-05-14T05:42:45.629Z" agent="Mozilla/5.0 (Windows NT 10.0; Win64; x64) AppleWebKit/537.36 (KHTML, like Gecko) Chrome/115.0.0.0 Safari/537.36 Edg/115.0.0.0" etag="ZM0O3O-jmQKgBaZVnkdz" version="21.2.9" type="github">
  <diagram name="第 1 页" id="V3iQ8xnQVVkafoGxsatK">
    <mxGraphModel dx="746" dy="516" grid="1" gridSize="10" guides="1" tooltips="1" connect="1" arrows="1" fold="1" page="1" pageScale="1" pageWidth="827" pageHeight="1169" math="0" shadow="0">
      <root>
        <mxCell id="0" />
        <mxCell id="1" parent="0" />
        <mxCell id="t-4CvnlxESvYczC8NW54-2" value="发布问题" style="rounded=1;whiteSpace=wrap;html=1;fillColor=#e1d5e7;strokeColor=#9673a6;fontFamily=Times New Roman;fontStyle=1" vertex="1" parent="1">
          <mxGeometry x="310" y="360" width="120" height="60" as="geometry" />
        </mxCell>
        <mxCell id="t-4CvnlxESvYczC8NW54-10" style="rounded=0;orthogonalLoop=1;jettySize=auto;html=1;entryX=0;entryY=0.5;entryDx=0;entryDy=0;fillColor=#ffe6cc;strokeColor=#D79B00;" edge="1" parent="1" source="t-4CvnlxESvYczC8NW54-3" target="t-4CvnlxESvYczC8NW54-2">
          <mxGeometry relative="1" as="geometry">
            <mxPoint x="350" y="390" as="targetPoint" />
          </mxGeometry>
        </mxCell>
        <mxCell id="t-4CvnlxESvYczC8NW54-22" style="edgeStyle=none;shape=connector;rounded=0;orthogonalLoop=1;jettySize=auto;html=1;entryX=0;entryY=0.5;entryDx=0;entryDy=0;labelBackgroundColor=default;strokeColor=#d79b00;fontFamily=Helvetica;fontSize=12;fontColor=default;endArrow=classic;fillColor=#ffe6cc;exitX=1;exitY=0.3333333333333333;exitDx=0;exitDy=0;exitPerimeter=0;" edge="1" parent="1" source="t-4CvnlxESvYczC8NW54-3" target="t-4CvnlxESvYczC8NW54-21">
          <mxGeometry relative="1" as="geometry" />
        </mxCell>
        <mxCell id="t-4CvnlxESvYczC8NW54-23" style="edgeStyle=none;shape=connector;rounded=0;orthogonalLoop=1;jettySize=auto;html=1;labelBackgroundColor=default;strokeColor=#d79b00;fontFamily=Helvetica;fontSize=12;fontColor=default;endArrow=classic;fillColor=#ffe6cc;entryX=0;entryY=0.5;entryDx=0;entryDy=0;exitX=1;exitY=0.3333333333333333;exitDx=0;exitDy=0;exitPerimeter=0;" edge="1" parent="1" source="t-4CvnlxESvYczC8NW54-3" target="t-4CvnlxESvYczC8NW54-24">
          <mxGeometry relative="1" as="geometry">
            <mxPoint x="310" y="330.0000000000001" as="targetPoint" />
          </mxGeometry>
        </mxCell>
        <mxCell id="t-4CvnlxESvYczC8NW54-26" style="edgeStyle=none;shape=connector;rounded=0;orthogonalLoop=1;jettySize=auto;html=1;entryX=0;entryY=0.5;entryDx=0;entryDy=0;labelBackgroundColor=default;strokeColor=#d79b00;fontFamily=Helvetica;fontSize=12;fontColor=default;endArrow=classic;fillColor=#ffe6cc;exitX=1;exitY=0.3333333333333333;exitDx=0;exitDy=0;exitPerimeter=0;" edge="1" parent="1" source="t-4CvnlxESvYczC8NW54-3" target="t-4CvnlxESvYczC8NW54-25">
          <mxGeometry relative="1" as="geometry">
            <mxPoint x="160" y="480" as="sourcePoint" />
          </mxGeometry>
        </mxCell>
        <mxCell id="t-4CvnlxESvYczC8NW54-29" style="edgeStyle=none;shape=connector;rounded=0;orthogonalLoop=1;jettySize=auto;html=1;exitX=1;exitY=0.3333333333333333;exitDx=0;exitDy=0;exitPerimeter=0;entryX=0;entryY=0.5;entryDx=0;entryDy=0;labelBackgroundColor=default;strokeColor=#d79b00;fontFamily=Helvetica;fontSize=12;fontColor=default;endArrow=classic;fillColor=#ffe6cc;" edge="1" parent="1" source="t-4CvnlxESvYczC8NW54-3" target="t-4CvnlxESvYczC8NW54-28">
          <mxGeometry relative="1" as="geometry" />
        </mxCell>
        <mxCell id="t-4CvnlxESvYczC8NW54-30" style="edgeStyle=none;shape=connector;rounded=0;orthogonalLoop=1;jettySize=auto;html=1;exitX=1;exitY=0.3333333333333333;exitDx=0;exitDy=0;exitPerimeter=0;entryX=0;entryY=0.5;entryDx=0;entryDy=0;labelBackgroundColor=default;strokeColor=#d79b00;fontFamily=Helvetica;fontSize=12;fontColor=default;endArrow=classic;fillColor=#ffe6cc;" edge="1" parent="1" source="t-4CvnlxESvYczC8NW54-3" target="t-4CvnlxESvYczC8NW54-27">
          <mxGeometry relative="1" as="geometry" />
        </mxCell>
        <mxCell id="t-4CvnlxESvYczC8NW54-3" value="学生" style="shape=umlActor;verticalLabelPosition=bottom;verticalAlign=top;outlineConnect=0;labelBackgroundColor=none;fillColor=#e1d5e7;strokeColor=#9673a6;fontStyle=1;strokeWidth=1;" vertex="1" parent="1">
          <mxGeometry x="100" y="440" width="60" height="100" as="geometry" />
        </mxCell>
        <mxCell id="t-4CvnlxESvYczC8NW54-21" value="知识学习" style="rounded=1;whiteSpace=wrap;html=1;fillColor=#e1d5e7;strokeColor=#9673a6;fontFamily=Times New Roman;fontStyle=1" vertex="1" parent="1">
          <mxGeometry x="310" y="430" width="120" height="60" as="geometry" />
        </mxCell>
        <mxCell id="t-4CvnlxESvYczC8NW54-24" value="课程公告" style="rounded=1;whiteSpace=wrap;html=1;fillColor=#e1d5e7;strokeColor=#9673a6;fontFamily=Times New Roman;fontStyle=1" vertex="1" parent="1">
          <mxGeometry x="310" y="500" width="120" height="60" as="geometry" />
        </mxCell>
        <mxCell id="t-4CvnlxESvYczC8NW54-25" value="我的" style="rounded=1;whiteSpace=wrap;html=1;fillColor=#e1d5e7;strokeColor=#9673a6;fontFamily=Times New Roman;fontStyle=1" vertex="1" parent="1">
          <mxGeometry x="310" y="640" width="120" height="60" as="geometry" />
        </mxCell>
        <mxCell id="t-4CvnlxESvYczC8NW54-27" value="发送私信" style="rounded=1;whiteSpace=wrap;html=1;fillColor=#e1d5e7;strokeColor=#9673a6;fontFamily=Times New Roman;fontStyle=1" vertex="1" parent="1">
          <mxGeometry x="310" y="570" width="120" height="60" as="geometry" />
        </mxCell>
        <mxCell id="t-4CvnlxESvYczC8NW54-28" value="智能答疑" style="rounded=1;whiteSpace=wrap;html=1;fillColor=#e1d5e7;strokeColor=#9673a6;fontFamily=Times New Roman;fontStyle=1" vertex="1" parent="1">
          <mxGeometry x="310" y="290" width="120" height="60" as="geometry" />
        </mxCell>
      </root>
    </mxGraphModel>
  </diagram>
</mxfile>
